Coordinates
version=1
nRows=17
nColumns=38
inDegrees=no

Units are S.I. units (second, meters, Newtons, ...)
If the header above contains a line with 'inDegrees', this indicates whether rotational values are in degrees (yes) or radians (no).

endheader
time	pelvis_tilt	pelvis_list	pelvis_rotation	pelvis_tx	pelvis_ty	pelvis_tz	hip_flexion_r	hip_adduction_r	hip_rotation_r	knee_angle_r	ankle_angle_r	subtalar_angle_r	mtp_angle_r	hip_flexion_l	hip_adduction_l	hip_rotation_l	knee_angle_l	ankle_angle_l	subtalar_angle_l	mtp_angle_l	lumbar_extension	lumbar_bending	lumbar_rotation	arm_flex_r	arm_add_r	arm_rot_r	elbow_flex_r	pro_sup_r	wrist_flex_r	wrist_dev_r	arm_flex_l	arm_add_l	arm_rot_l	elbow_flex_l	pro_sup_l	wrist_flex_l	wrist_dev_l
2.05	-2.81758	1.39468	-1.99695	0.773238	0.964625	0.936802	-0.293738	-0.160464	-0.182818	0.712632	-0.0461995	0	0	0.184391	0.0637459	-0.370249	0.267188	-0.0628447	0	0	-0.247452	-0.0873037	0.187479	0.0231721	-0.323259	0.96548	0.362437	0.678241	0	0	0.0816372	-0.142134	0.0274066	0.234211	1.5708	0	0
2.06	-2.78938	1.40119	-2.02612	0.771698	0.975484	0.936563	-0.242707	-0.17515	-0.167231	0.787681	-0.105652	0	0	0.188144	0.0665215	-0.378411	0.28194	-0.0488376	0	0	-0.234509	-0.0878343	0.195328	0.0149334	-0.327206	0.960701	0.366652	0.676854	0	0	0.0799653	-0.142012	0.0400176	0.23852	1.5708	0	0
2.07	-2.71846	1.39661	-2.09898	0.770444	0.985438	0.937575	-0.196158	-0.2013	-0.150382	0.860587	-0.166545	0	0	0.183411	0.0812955	-0.385783	0.291458	-0.0420852	0	0	-0.231225	-0.101704	0.201016	0.0115311	-0.327278	0.955838	0.366692	0.678286	0	0	0.0821215	-0.144483	0.052783	0.243642	1.5708	0	0
2.08	-2.66987	1.39893	-2.14957	0.769319	0.995341	0.937521	-0.142814	-0.216676	-0.127467	0.930698	-0.22964	0	0	0.179976	0.0906343	-0.39005	0.292808	-0.0340404	0	0	-0.221989	-0.10789	0.207238	0.00723374	-0.328278	0.949983	0.367699	0.683331	0	0	0.0828091	-0.146954	0.0647345	0.247535	1.5708	0	0
2.09	-2.62251	1.40011	-2.19857	0.768484	1.00485	0.937527	-0.08909	-0.228713	-0.101975	0.99747	-0.295387	0	0	0.176855	0.0988421	-0.392211	0.296297	-0.025427	0	0	-0.2147	-0.114885	0.211785	0.00481808	-0.327791	0.942143	0.367973	0.690218	0	0	0.0830354	-0.150428	0.074647	0.254709	1.5708	0	0
2.1	-2.58319	1.40081	-2.23879	0.767811	1.014	0.937686	-0.0367299	-0.236856	-0.0769847	1.05918	-0.356814	0	0	0.1738	0.105101	-0.391122	0.301721	-0.0149859	0	0	-0.209444	-0.120954	0.214353	0.0042041	-0.32647	0.934824	0.367459	0.697763	0	0	0.0833384	-0.154466	0.0823151	0.262214	1.5708	0	0
2.11	-2.55584	1.40051	-2.2662	0.767142	1.02297	0.938049	0.0111773	-0.241955	-0.0538347	1.11394	-0.407071	0	0	0.168535	0.110381	-0.387493	0.306404	-0.00483431	0	0	-0.206613	-0.125699	0.215061	0.0045258	-0.325062	0.926768	0.367293	0.706735	0	0	0.083655	-0.158358	0.0899669	0.270025	1.5708	0	0
2.12	-2.53514	1.39475	-2.28615	0.76655	1.03173	0.939214	0.0497459	-0.248234	-0.0318714	1.16034	-0.439929	0	0	0.154123	0.121671	-0.377247	0.301242	-0.0014136	0	0	-0.209763	-0.133112	0.212415	0.00909502	-0.326868	0.949222	0.372829	0.670071	0	0	0.0866859	-0.16041	0.0828013	0.271859	1.5708	0	0
2.13	-2.53484	1.39233	-2.28406	0.765604	1.04067	0.940172	0.0849991	-0.247939	-0.0128024	1.20226	-0.444318	0	0	0.141394	0.126548	-0.37058	0.300646	0.00597659	0	0	-0.211911	-0.134302	0.208926	0.0108678	-0.325974	0.947006	0.373137	0.672849	0	0	0.0880719	-0.161794	0.0831584	0.275349	1.5708	0	0
2.14	-2.54165	1.38965	-2.2743	0.764564	1.04956	0.941334	0.118948	-0.246302	0.00417604	1.24423	-0.411996	0	0	0.125576	0.131579	-0.363738	0.29632	0.0122844	0	0	-0.215338	-0.134207	0.204051	0.0132359	-0.32501	0.944456	0.373131	0.677832	0	0	0.0902503	-0.161684	0.0805039	0.276794	1.5708	0	0
2.15	-2.55684	1.39655	-2.25369	0.762955	1.05841	0.941464	0.159299	-0.236657	0.0165912	1.28609	-0.361077	0	0	0.110873	0.131875	-0.356063	0.280416	0.0191515	0	0	-0.211344	-0.124784	0.197508	0.0146828	-0.327133	0.94588	0.37655	0.675085	0	0	0.0903993	-0.159918	0.0812037	0.277837	1.5708	0	0
2.16	-2.57617	1.39446	-2.23089	0.761859	1.06704	0.942991	0.189694	-0.232642	0.0278909	1.31864	-0.316248	0	0	0.0899472	0.136382	-0.348211	0.268178	0.0224992	0	0	-0.216394	-0.121949	0.190906	0.0189761	-0.326049	0.946759	0.376252	0.673252	0	0	0.0937426	-0.158053	0.077929	0.27508	1.5708	0	0
2.17	-2.60399	1.39324	-2.199	0.760689	1.07552	0.944573	0.217205	-0.226359	0.0365321	1.34188	-0.285258	0	0	0.0690672	0.138324	-0.340906	0.256557	0.0268974	0	0	-0.2219	-0.116775	0.183455	0.024094	-0.324727	0.947405	0.3747	0.673278	0	0	0.0975626	-0.15535	0.0750066	0.271246	1.5708	0	0
2.18	-2.63652	1.39264	-2.16149	0.759418	1.08382	0.94617	0.242029	-0.218452	0.0432583	1.35727	-0.264279	0	0	0.0492346	0.138274	-0.334106	0.246595	0.0324704	0	0	-0.227574	-0.109929	0.174669	0.0301859	-0.323161	0.948112	0.372181	0.674267	0	0	0.101367	-0.152523	0.0726496	0.267992	1.5708	0	0
2.19	-2.66972	1.39241	-2.12236	0.758137	1.09182	0.947744	0.265524	-0.209937	0.0480897	1.36719	-0.241167	0	0	0.0305135	0.137224	-0.326343	0.237055	0.0368029	0	0	-0.233443	-0.102491	0.164733	0.0373954	-0.321189	0.948756	0.369096	0.676036	0	0	0.1061	-0.149903	0.0695807	0.26372	1.5708	0	0
2.2	-2.70509	1.3922	-2.07958	0.756842	1.09964	0.949305	0.287011	-0.200988	0.050131	1.3721	-0.21246	0	0	0.0126799	0.134931	-0.316826	0.228536	0.0401669	0	0	-0.239936	-0.0947578	0.154583	0.0424524	-0.312651	0.909071	0.356361	0.738078	0	0	0.1099	-0.14986	0.0805748	0.265552	1.5708	0	0
2.21	-2.74381	1.39231	-2.03299	0.755566	1.10735	0.950768	0.30687	-0.191546	0.0497495	1.37196	-0.18074	0	0	-0.0031651	0.130481	-0.309247	0.223103	0.0441061	0	0	-0.246029	-0.0856484	0.14254	0.0513774	-0.312091	0.917777	0.355375	0.730527	0	0	0.115812	-0.147704	0.0714614	0.260269	1.5708	0	0
